<svg xmlns="http://www.w3.org/2000/svg" width="151" height="151" fill="none" viewBox="0 0 151 151">
  <path fill="#555" d="M75.207 79.572c18.705 0 33.868-15.163 33.868-33.867 0-18.704-15.163-33.867-33.868-33.867-18.704 0-33.867 15.163-33.867 33.867 0 18.704 15.163 33.867 33.867 33.867ZM75.26 0c24.94 0 45.157 20.217 45.157 45.156 0 16.59-8.946 31.09-22.278 38.94 27.753 8.349 48.601 31.748 52.342 60.798.355 2.756-1.698 5.266-4.586 5.604-2.888.339-5.516-1.621-5.871-4.377-4.061-31.54-31.375-55.282-64.503-55.282-33.3 0-60.967 23.794-65.024 55.282-.355 2.757-2.984 4.716-5.871 4.377-2.888-.339-4.941-2.848-4.586-5.604C3.768 115.96 24.732 92.603 52.528 84.17c-13.414-7.82-22.424-22.365-22.424-39.014C30.104 20.217 50.321 0 75.26 0Z"/>
</svg>
